HIERARCHY
ROOT Hips
{
	OFFSET 0.000000 0.000000 0.000000
	CHANNELS 6 Xposition Yposition Zposition Zrotation Yrotation Xrotation 
	JOINT LHipJoint
	{
		OFFSET 0.000000 0.000000 0.000000
		CHANNELS 3 Zrotation Yrotation Xrotation
		JOINT LeftUpLeg
		{
			OFFSET 1.363060 -1.794630 0.839290
			CHANNELS 3 Zrotation Yrotation Xrotation
			JOINT LeftLeg
			{
				OFFSET 2.448110 -6.726130 0.000000
				CHANNELS 3 Zrotation Yrotation Xrotation
				JOINT LeftFoot
				{
					OFFSET 2.562200 -7.039590 0.000000
					CHANNELS 3 Zrotation Yrotation Xrotation
					JOINT LeftToeBase
					{
						OFFSET 0.157640 -0.433110 2.322550
						CHANNELS 3 Zrotation Yrotation Xrotation
						End Site
						{
							OFFSET 0.000000 0.000000 0.000000
						}
					}
				}
			}
		}
	}
	JOINT RHipJoint
	{
		OFFSET 0.000000 0.000000 0.000000
		CHANNELS 3 Zrotation Yrotation Xrotation
		JOINT RightUpLeg
		{
			OFFSET -1.305520 -1.794630 0.839290
			CHANNELS 3 Zrotation Yrotation Xrotation
			JOINT RightLeg
			{
				OFFSET -2.542530 -6.985550 0.000000
				CHANNELS 3 Zrotation Yrotation Xrotation
				JOINT RightFoot
				{
					OFFSET -2.568260 -7.056230 0.000000
					CHANNELS 3 Zrotation Yrotation Xrotation
					JOINT RightToeBase
					{
						OFFSET -0.164730 -0.452590 2.363150
						CHANNELS 3 Zrotation Yrotation Xrotation
						End Site
						{
							OFFSET 0.000000 0.000000 0.000000
						}
					}
				}
			}
		}
	}
	JOINT LowerBack
	{
		OFFSET 0.000000 0.000000 0.000000
		CHANNELS 3 Zrotation Yrotation Xrotation
		JOINT Spine
		{
			OFFSET 0.028270 2.035590 -0.193380
			CHANNELS 3 Zrotation Yrotation Xrotation
			JOINT Spine1
			{
				OFFSET 0.056720 2.048850 -0.042750
				CHANNELS 3 Zrotation Yrotation Xrotation
				JOINT Neck
				{
					OFFSET 0.000000 0.000000 0.000000
					CHANNELS 3 Zrotation Yrotation Xrotation
					JOINT Neck1
					{
						OFFSET -0.054170 1.746240 0.172020
						CHANNELS 3 Zrotation Yrotation Xrotation
						JOINT Head
						{
							OFFSET 0.104070 1.761360 -0.123970
							CHANNELS 3 Zrotation Yrotation Xrotation
							End Site
							{
								OFFSET 0.000000 0.000000 0.000000
							}
						}
					}
				}
				JOINT LeftShoulder
				{
					OFFSET 0.000000 0.000000 0.000000
					CHANNELS 3 Zrotation Yrotation Xrotation
					JOINT LeftArm
					{
						OFFSET 3.362410 1.200890 -0.311210
						CHANNELS 3 Zrotation Yrotation Xrotation
						JOINT LeftForeArm
						{
							OFFSET 4.983000 -0.000000 -0.000000
							CHANNELS 3 Zrotation Yrotation Xrotation
							JOINT LeftHand
							{
								OFFSET 3.483560 -0.000000 -0.000000
								CHANNELS 3 Zrotation Yrotation Xrotation
								JOINT LeftFingerBase
								{
									OFFSET 0.000000 0.000000 0.000000
									CHANNELS 3 Zrotation Yrotation Xrotation
									JOINT LeftHandIndex1
									{
										OFFSET 0.715260 -0.000000 -0.000000
										CHANNELS 3 Zrotation Yrotation Xrotation
										End Site
										{
											OFFSET 0.000000 0.000000 0.000000
										}
									}
								}
								JOINT LThumb
								{
									OFFSET 0.000000 0.000000 0.000000
									CHANNELS 3 Zrotation Yrotation Xrotation
									End Site
									{
										OFFSET 0.000000 0.000000 0.000000
									}
								}
							}
						}
					}
				}
				JOINT RightShoulder
				{
					OFFSET 0.000000 0.000000 0.000000
					CHANNELS 3 Zrotation Yrotation Xrotation
					JOINT RightArm
					{
						OFFSET -3.136600 1.374050 -0.404650
						CHANNELS 3 Zrotation Yrotation Xrotation
						JOINT RightForeArm
						{
							OFFSET -5.241900 -0.000000 -0.000000
							CHANNELS 3 Zrotation Yrotation Xrotation
							JOINT RightHand
							{
								OFFSET -3.444170 -0.000000 -0.000000
								CHANNELS 3 Zrotation Yrotation Xrotation
								JOINT RightFingerBase
								{
									OFFSET 0.000000 0.000000 0.000000
									CHANNELS 3 Zrotation Yrotation Xrotation
									JOINT RightHandIndex1
									{
										OFFSET -0.622530 -0.000000 -0.000000
										CHANNELS 3 Zrotation Yrotation Xrotation
										End Site
										{
											OFFSET 0.000000 0.000000 0.000000
										}
									}
								}
								JOINT RThumb
								{
									OFFSET 0.000000 0.000000 0.000000
									CHANNELS 3 Zrotation Yrotation Xrotation
									End Site
									{
										OFFSET 0.000000 0.000000 0.000000
									}
								}
							}
						}
					}
				}
			}
		}
	}
}
MOTION
Frames: 12
Frame Time: 0.008333
1.823480 17.662470 -26.648726 3.794454 -6.092451 13.074438 1.734872 1.684904 -0.307848 -31.052590 -9.811968 -12.176496 0.615609 8.194558 25.265717 -0.152351 3.534331 -8.983432 0.050051 1.442948 3.968400 -4.500536 -2.078664 0.103057 13.031233 23.195358 -44.199396 -3.329633 -13.289544 35.876067 3.210886 -14.620689 0.928373 -0.208354 2.938276 -8.107063 -3.808885 -0.022705 -2.617827 0.580389 -0.094614 -7.685827 1.785646 0.407058 -2.649231 -6.084872 -1.624529 -23.105371 3.747727 -0.937910 19.288207 1.885976 -0.626765 10.805171 -4.903806 -11.051201 1.884635 -82.089110 -8.772681 40.139637 22.336372 -23.864394 -6.008406 0.349661 -0.061316 -10.492438 36.797347 -22.762139 -15.924524 -7.125000 0.000000 0.000000 4.562488 2.563522 -4.368273 5.098559 11.610472 3.143069 86.158032 -6.763692 30.441956 -25.354501 24.493116 -6.752787 0.569547 -0.703062 2.048313 -35.906798 -43.295938 26.373994 7.125000 0.000000 0.000000 1.160289 -78.265284 -0.907854
1.817243 17.665100 -26.568724 3.916824 -5.899591 13.129217 1.689125 1.702298 -0.291313 -31.134192 -9.605784 -11.705238 0.527677 8.001120 24.740738 -0.100998 3.309745 -8.788598 0.045091 1.369297 3.765482 -4.426172 -2.045103 0.018181 12.795485 23.034517 -44.139685 -2.952546 -12.798081 34.188052 3.213819 -14.673796 1.311604 -0.226890 3.064253 -8.457913 -3.990715 -0.146674 -2.225649 0.681823 -0.245718 -8.055299 1.888847 0.333039 -2.905062 -6.132442 -1.630879 -23.296837 3.656620 -0.904321 19.594899 1.864644 -0.626638 10.947652 -4.917421 -11.044425 1.900253 -82.219849 -8.862842 40.258698 22.388224 -23.940404 -6.064503 0.335969 -0.054802 -10.532883 37.856676 -23.713249 -17.170038 -7.125000 0.000000 0.000000 5.003935 1.126281 -4.934568 5.092762 11.599242 3.170630 86.068209 -6.897608 30.626379 -25.301510 24.435880 -6.725538 0.565826 -0.713046 2.197953 -35.747323 -43.149099 26.175417 7.125000 0.000000 0.000000 1.241650 -78.057464 -0.957595
1.811047 17.668620 -26.487336 4.036910 -5.601993 13.188396 1.646773 1.718234 -0.281032 -31.189019 -9.376243 -11.235030 0.442807 7.809465 24.222500 -0.016618 2.963955 -8.566013 0.042395 1.328890 3.654174 -4.351722 -2.011776 -0.072527 12.564703 22.816628 -44.051158 -2.592731 -12.308235 32.535856 3.221744 -14.727474 1.587426 -0.235295 3.121028 -8.616032 -4.155635 -0.313774 -1.876185 0.806382 -0.451080 -8.532080 1.985526 0.228856 -3.144737 -6.243138 -1.602562 -23.100076 3.626803 -0.839448 19.757966 1.877781 -0.613471 10.968437 -4.933041 -11.023954 1.910787 -82.390961 -8.773582 40.380853 22.469593 -24.060851 -6.134457 0.321694 -0.053509 -10.665803 38.871240 -24.438538 -18.232621 -7.125000 0.000000 0.000000 5.470719 -0.023811 -5.497277 5.082350 11.567004 3.199135 85.982755 -7.194038 30.902946 -25.243407 24.373392 -6.701030 0.568571 -0.716709 2.196415 -35.492297 -43.185753 25.982652 7.125000 0.000000 0.000000 1.841090 -77.998940 -1.417661
1.804752 17.675125 -26.402916 4.156644 -5.096808 13.209102 1.604614 1.736527 -0.247116 -31.194955 -9.159425 -10.740981 0.367829 7.624485 23.738399 0.124181 2.415528 -8.330629 0.044372 1.360126 3.740243 -4.274862 -1.991036 -0.134530 12.327934 22.505281 -43.903587 -2.255306 -11.819842 30.936382 3.228581 -14.739454 1.656311 -0.215654 2.989060 -8.248225 -4.244983 -0.543898 -2.247111 0.856494 -0.729083 -8.606948 2.048506 0.076907 -2.903096 -6.370849 -1.510083 -22.057779 3.701810 -0.758751 19.306536 1.932274 -0.587759 10.620272 -4.923991 -11.037051 1.897824 -82.485686 -8.705826 40.580773 22.645011 -24.279107 -6.220914 0.323884 -0.072128 -11.031276 38.771093 -23.692136 -17.662189 -7.125000 0.000000 0.000000 5.576567 0.909245 -5.513168 5.070503 11.538467 3.189075 85.931352 -7.463808 31.199700 -25.176900 24.289519 -6.671255 0.579959 -0.714931 1.876809 -35.224902 -43.176754 25.764273 7.125000 0.000000 0.000000 2.380285 -77.892956 -1.828026
1.798515 17.680113 -26.321063 4.221012 -4.883605 13.102474 1.551785 1.765288 -0.170865 -31.198074 -8.906527 -10.223892 0.301746 7.450354 23.298513 0.210420 2.082895 -8.227780 0.049480 1.434154 3.944274 -4.210151 -1.985953 -0.150543 12.155806 22.414337 -43.642131 -1.947920 -11.326752 29.409685 3.189915 -14.573790 1.654290 -0.152025 2.475324 -6.822975 -4.221152 -0.605113 -2.605253 0.718465 -0.811589 -8.021162 2.034440 0.029967 -2.607462 -6.319099 -1.527802 -22.234161 3.763423 -0.796111 19.072665 1.944771 -0.591580 10.570737 -4.887967 -11.106585 1.894598 -82.328927 -9.295183 40.820711 22.734285 -24.362116 -6.265757 0.335653 -0.075116 -11.066400 38.593287 -23.586247 -17.478532 -7.125000 0.000000 0.000000 5.487804 1.094983 -5.407057 5.081993 11.591642 3.150306 85.924387 -7.073445 30.857684 -25.068558 24.138573 -6.580972 0.547559 -0.759621 1.999303 -35.711900 -41.455875 25.339789 7.125000 0.000000 0.000000 -0.691803 -76.287557 0.428121
1.791183 17.682971 -26.240364 4.230086 -4.808936 13.082223 1.500074 1.789974 -0.099550 -31.156324 -8.692702 -9.815020 0.235988 7.285979 22.873187 0.259984 1.887398 -8.154226 0.053401 1.490643 4.099975 -4.149124 -1.982613 -0.162495 11.965156 22.525711 -43.458122 -1.663729 -10.838016 27.904063 3.199060 -14.617730 1.883405 -0.114283 2.176156 -5.992771 -4.175094 -0.603816 -2.989902 0.571960 -0.810948 -7.425885 2.007252 0.023834 -2.302204 -6.217873 -1.571756 -22.688128 3.817057 -0.864255 18.951374 1.944413 -0.603549 10.613553 -4.851009 -11.182142 1.897725 -82.140899 -9.991502 41.020327 22.829321 -24.444750 -6.312328 0.351443 -0.078093 -10.990372 38.333346 -23.528679 -17.278498 -7.125000 0.000000 0.000000 5.336405 1.248617 -5.242357 5.096147 11.659577 3.117631 85.943665 -6.558320 30.420590 -25.059243 24.123436 -6.565008 0.544228 -0.762874 2.413700 -35.628056 -41.350262 25.207097 7.125000 0.000000 0.000000 -0.312945 -76.127318 0.047405
1.781950 17.682691 -26.160770 4.163108 -4.872573 13.253649 1.453918 1.804099 -0.051136 -31.038506 -8.558246 -9.599775 0.167752 7.134653 22.457788 0.265184 1.853774 -8.085791 0.054220 1.502442 4.132507 -4.090281 -1.976931 -0.183151 11.720682 22.909282 -43.445879 -1.409118 -10.358352 26.409817 3.305791 -15.082030 2.533467 -0.135971 2.375438 -6.544448 -4.129452 -0.552774 -3.424413 0.475027 -0.734198 -7.039476 1.983792 0.051966 -1.998828 -6.092875 -1.623192 -23.203277 3.861559 -0.945009 18.949201 1.936297 -0.619440 10.713126 -4.821638 -11.248804 1.908441 -81.984903 -10.647488 41.137088 22.963605 -24.572834 -6.376046 0.370868 -0.086377 -10.836120 37.958874 -23.335772 -16.918534 -7.125000 0.000000 0.000000 5.143805 1.601829 -5.018658 5.106919 11.725003 3.105204 85.992848 -6.053999 30.037979 -25.234185 24.364295 -6.697247 0.605721 -0.679159 3.178527 -34.307162 -44.600946 25.645561 7.125000 0.000000 0.000000 7.220792 -78.958949 -5.768695
1.769880 17.684493 -26.072282 4.089411 -4.571555 13.421360 1.411500 1.817387 -0.028955 -30.835249 -8.510676 -9.253046 0.103869 6.986912 22.056399 0.301272 1.696145 -7.941229 0.046612 1.390182 3.823064 -4.034403 -1.971095 -0.238269 11.448694 23.216859 -43.297431 -1.187180 -9.900274 24.992925 3.526399 -15.885557 2.889287 -0.180047 2.720799 -7.503111 -3.998280 -0.621158 -3.478202 0.400426 -0.838548 -7.171632 1.917951 -0.011517 -1.977697 -6.027206 -1.651805 -23.391972 3.882160 -0.995942 19.112911 1.930087 -0.632809 10.813622 -4.803535 -11.265229 1.930345 -81.921854 -10.792958 41.258143 23.095641 -24.728632 -6.449046 0.385241 -0.099679 -10.821134 37.669809 -23.290387 -16.706123 -7.125000 0.000000 0.000000 4.976547 1.762711 -4.839797 5.121347 11.737793 3.098621 86.120271 -6.034032 30.104603 -25.037764 24.141900 -6.610622 0.623796 -0.668166 2.473130 -34.577917 -44.393009 25.800357 7.125000 0.000000 0.000000 5.970141 -78.879672 -4.718725
1.761309 17.682652 -25.983618 4.047729 -4.363458 13.428244 1.374247 1.840928 0.008309 -30.727927 -8.352279 -8.782022 0.048016 6.840722 21.680599 0.326795 1.581566 -7.841054 0.037879 1.251408 3.440780 -3.976874 -1.968605 -0.286038 11.266909 23.391528 -43.028411 -0.984698 -9.457196 23.646179 3.689247 -16.532326 3.408728 -0.254990 3.216869 -8.885938 -3.920851 -0.657653 -3.481473 0.369760 -0.892660 -7.171099 1.874993 -0.045111 -1.971849 -5.994841 -1.684605 -23.450018 3.841336 -1.044172 19.196633 1.904598 -0.655974 10.858785 -4.794126 -11.281756 1.939459 -81.932723 -10.947580 41.339335 23.195211 -24.842800 -6.507771 0.395661 -0.109204 -10.645340 37.518547 -23.384800 -16.668498 -7.125000 0.000000 0.000000 4.863915 1.712207 -4.733460 5.127575 11.745922 3.087817 86.188449 -6.046363 30.030381 -24.851258 23.918983 -6.511442 0.614115 -0.690454 2.145810 -35.164582 -43.374362 25.824195 7.125000 0.000000 0.000000 2.963859 -78.073930 -2.338426
1.757672 17.675797 -25.895980 4.048479 -4.327196 13.227259 1.343161 1.877871 0.068818 -30.756966 -8.038021 -8.168484 0.001952 6.696034 21.335980 0.334273 1.540260 -7.809134 0.028876 1.095774 3.012342 -3.916790 -1.970472 -0.319423 11.205885 23.404698 -42.622367 -0.802819 -9.030509 22.379417 3.761193 -16.928128 4.181687 -0.366771 3.887625 -10.760983 -3.925125 -0.635982 -3.472982 0.392873 -0.856133 -6.925495 1.867664 -0.027055 -1.946000 -5.997260 -1.726048 -23.384813 3.724287 -1.093104 19.153311 1.853856 -0.692189 10.832118 -4.794394 -11.305503 1.930422 -82.026266 -11.186062 41.368268 23.253028 -24.899116 -6.546692 0.401671 -0.113127 -10.241533 37.533801 -23.639554 -16.836545 -7.125000 0.000000 0.000000 4.818493 1.414919 -4.714773 5.122659 11.755432 3.070718 86.168825 -6.032236 29.710298 -24.729978 23.760726 -6.426862 0.574589 -0.745609 2.515748 -35.936112 -41.793011 25.718347 7.125000 0.000000 0.000000 -1.078404 -76.737398 0.797312
1.753763 17.670434 -25.804614 4.169863 -4.172103 13.153853 1.302598 1.906571 0.123745 -30.861728 -7.909838 -7.606493 -0.047435 6.547745 20.971382 0.349261 1.465634 -7.748911 0.024038 0.998249 2.744020 -3.878235 -1.974860 -0.345562 10.955373 23.329078 -42.410993 -0.654588 -8.664371 21.287272 3.804294 -17.217412 4.811012 -0.392677 4.022700 -11.140582 -3.917923 -0.622343 -3.657988 0.159117 -0.855371 -6.638847 1.851051 -0.031107 -1.802930 -5.899253 -1.781193 -23.516747 3.746497 -1.199307 19.122645 1.837492 -0.728139 10.853513 -4.769299 -11.351180 1.933269 -81.964957 -11.590938 41.573037 23.223080 -24.845903 -6.539131 0.401386 -0.103983 -9.872228 37.815461 -23.824006 -17.127554 -7.125000 0.000000 0.000000 4.944029 1.099055 -4.866845 5.146209 11.785121 3.049359 86.275514 -5.832274 29.319484 -24.709387 23.766589 -6.453772 0.603885 -0.702718 2.540045 -36.024376 -43.256533 26.474558 7.125000 0.000000 0.000000 0.837585 -78.257823 -0.683327
1.746926 17.667723 -25.714748 4.233731 -4.027106 13.120047 1.273993 1.937371 0.168177 -30.899974 -7.811570 -7.083465 -0.097140 6.404685 20.612731 0.357805 1.414702 -7.684673 0.019882 0.908602 2.497371 -3.837448 -1.974108 -0.373525 10.702971 23.380419 -42.205576 -0.516797 -8.319069 20.288932 3.829920 -17.342128 5.054255 -0.336164 3.683477 -10.192318 -3.976562 -0.639929 -3.648242 0.104211 -0.876934 -6.482220 1.880706 -0.043576 -1.784084 -5.920405 -1.841091 -23.871988 3.835000 -1.267702 19.219562 1.868087 -0.747304 10.958600 -4.762670 -11.385277 1.939329 -81.954767 -12.000926 41.834642 23.163453 -24.756321 -6.511824 0.395469 -0.093338 -9.747391 38.035905 -23.876433 -17.301239 -7.125000 0.000000 0.000000 5.063652 0.953808 -4.998314 5.155274 11.816808 3.044384 86.274053 -5.652923 29.111908 -24.643405 23.710639 -6.443267 0.628945 -0.673318 2.346244 -35.934002 -44.135733 26.811921 7.125000 0.000000 0.000000 2.348570 -79.117896 -1.864200
